<svg xmlns="http://www.w3.org/2000/svg" width="105" height="105"><path d="M104.5 52.499a52 52 0 1 1-52-52 52 52 0 0 1 52 52" fill="#fff" stroke="#cd1423"/><path d="M13.842 42.256a5.143 5.143 0 0 0 2.956.953c1.092 0 2.183-.416 2.183-1.548 0-2.56-5.656-2.242-5.656-6.231 0-1.925 1.528-3.612 4.247-3.612a7.4 7.4 0 0 1 3.2.655v2.183a6.784 6.784 0 0 0-3.115-.834c-.913 0-1.786.357-1.786 1.409 0 2.4 5.656 2.084 5.656 6.232 0 2.322-1.984 3.75-4.663 3.75a7.027 7.027 0 0 1-3.949-1.131ZM25.171 38.528a6.589 6.589 0 1 1 6.589 6.688 6.356 6.356 0 0 1-6.589-6.688m10.637 0c0-2.9-1.568-4.7-4.048-4.7-2.421 0-4.049 1.727-4.049 4.7 0 2.957 1.627 4.683 4.049 4.683 2.4 0 4.048-1.727 4.048-4.683M42.95 31.935h2.381v11.132h4.643v1.945H42.95ZM53.655 31.935h7.224l-.635 1.945h-4.207v3.493h4.187v1.945h-4.187v3.749h4.862v1.945h-7.243ZM65.489 31.936h2.362l5.577 7.144c.6.774 1.071 1.428 1.469 2.024h.04c-.04-.695-.04-1.488-.04-2.2v-6.968h2.4v13.078h-2.183l-5.775-7.442c-.576-.734-1.032-1.389-1.468-2h-.04c.04.536.04 1.29.04 2.024v7.422h-2.382ZM84.849 33.881h-3.81v-1.945h10.319l-.615 1.945H87.23v11.133h-2.381ZM13.83 54.906a2.722 2.722 0 0 1-.235-1.2v-3.879h1.127v3.8a1.868 1.868 0 0 0 .169.836 1.5 1.5 0 0 0 2.536 0 1.883 1.883 0 0 0 .169-.845v-3.794h1.127v3.879a2.73 2.73 0 0 1-.235 1.212 2.351 2.351 0 0 1-2.329 1.193 2.326 2.326 0 0 1-2.329-1.2" fill="#cd1423"/><path data-name="N" d="M22.919 49.825h1.118l2.639 3.381c.282.367.507.677.7.959h.019c-.019-.329-.019-.7-.019-1.043v-3.3h1.133v6.189h-1.035l-2.733-3.522c-.272-.347-.488-.657-.695-.949h-.019c.019.254.019.611.019.959v3.512h-1.127Z" fill="#cd1423"/><path fill="#cd1423" d="M33.404 49.825h1.127v6.189h-1.127zM38.285 49.825h1.23l1.3 3.362c.178.479.319.893.45 1.259h.019c.122-.357.263-.77.46-1.268l1.286-3.353h1.221l-2.529 6.229h-.911Z"/><path data-name="E" d="M48.092 49.825h3.418l-.3.92h-1.992v1.653H51.2v.92h-1.982v1.775h2.3v.921H48.09Z" fill="#cd1423"/><path d="M55.755 49.825h1.69a2.955 2.955 0 0 1 1.324.253 1.571 1.571 0 0 1 .921 1.512 1.611 1.611 0 0 1-1.212 1.6v.019a2.993 2.993 0 0 1 .77 1l1.033 1.8h-1.3l-.892-1.568c-.3-.555-.526-.808-.676-.845h-.536v2.413H55.75Zm1.634 2.855a1.351 1.351 0 0 0 .686-.159.894.894 0 0 0 .432-.818.87.87 0 0 0-.413-.779 1.163 1.163 0 0 0-.695-.179h-.517v1.935Z" fill="#cd1423"/><path data-name="S" d="M64.398 54.708a2.436 2.436 0 0 0 1.4.451c.517 0 1.033-.2 1.033-.733 0-1.211-2.676-1.061-2.676-2.948a1.792 1.792 0 0 1 2.009-1.71 3.506 3.506 0 0 1 1.512.31v1.033a3.215 3.215 0 0 0-1.475-.394c-.432 0-.845.169-.845.666 0 1.137 2.677.986 2.677 2.949 0 1.1-.939 1.775-2.207 1.775a3.327 3.327 0 0 1-1.869-.535Z" fill="#cd1423"/><path data-name="I" fill="#cd1423" d="M72.187 49.825h1.127v6.189h-1.127z"/><path data-name="T" d="M79.251 50.745h-1.8v-.92h4.884l-.291.92h-1.662v5.269h-1.131Z" fill="#cd1423"/><path d="m87.607 53.563-2.113-3.738h1.24l1.446 2.729h.019l1.437-2.733h1.22l-2.113 3.747v2.441h-1.137Z" fill="#cd1423"/><path fill="none" stroke="#cd1423" d="M90.936 61.445H13.248"/><path data-name="S" d="M13.573 71.732a2.438 2.438 0 0 0 1.4.451c.517 0 1.033-.2 1.033-.733 0-1.212-2.677-1.061-2.677-2.949a1.793 1.793 0 0 1 2.01-1.71 3.5 3.5 0 0 1 1.512.31v1.033a3.215 3.215 0 0 0-1.475-.394c-.432 0-.845.169-.845.667 0 1.136 2.677.986 2.677 2.949 0 1.1-.939 1.775-2.207 1.775a3.33 3.33 0 0 1-1.869-.535Z" fill="#cd1423"/><path data-name="O" d="M18.85 69.967a3.119 3.119 0 1 1 3.118 3.165 3.008 3.008 0 0 1-3.118-3.165m5.034 0c0-1.372-.742-2.226-1.916-2.226-1.146 0-1.916.817-1.916 2.226s.771 2.216 1.916 2.216 1.916-.817 1.916-2.216" fill="#cd1423"/><path data-name="U" d="M27.782 71.93a2.719 2.719 0 0 1-.235-1.2v-3.878h1.127v3.8a1.867 1.867 0 0 0 .169.836 1.5 1.5 0 0 0 2.536 0 1.883 1.883 0 0 0 .169-.845v-3.794h1.127v3.878a2.732 2.732 0 0 1-.235 1.212 2.351 2.351 0 0 1-2.329 1.192 2.324 2.324 0 0 1-2.329-1.2" fill="#cd1423"/><path data-name="T" d="M36.372 67.769h-1.8v-.92h4.884l-.291.92h-1.667v5.269h-1.126Z" fill="#cd1423"/><path d="M41.305 66.848h1.127v2.557h3.005V66.85h1.137v6.189h-1.137v-2.677h-3.005v2.677h-1.127ZM50.872 66.82h.864l2.479 6.218h-1.193l-.6-1.55h-2.207l-.582 1.55h-1.155Zm1.2 3.747-.432-1.23a12.472 12.472 0 0 1-.31-.958h-.019a14.17 14.17 0 0 1-.319.967l-.451 1.221ZM56.144 66.848h1.023l1.625 2.339c.216.319.376.554.517.8h.019c.131-.235.291-.507.507-.836l1.484-2.3h1.025v6.189h-1.137v-3.494c0-.253 0-.573.019-.817h-.019a7.463 7.463 0 0 1-.423.695l-1.221 1.9h-.516l-1.352-1.944a5.724 5.724 0 0 1-.423-.639h-.019c.009.245.009.563.009.78v3.522h-1.118ZM64.959 66.848h1.494a3.131 3.131 0 0 1 1.39.263 2.014 2.014 0 0 1-.179 3.578 3.587 3.587 0 0 1-1.315.216h-.263v2.132h-1.127Zm1.465 3.137a1.577 1.577 0 0 0 .723-.141.984.984 0 0 0 .517-.967 1.053 1.053 0 0 0-.489-.948 1.543 1.543 0 0 0-.77-.16h-.319v2.217Z" fill="#cd1423"/><path data-name="T" d="M72.302 67.769h-1.8v-.92h4.884l-.291.92h-1.662v5.269h-1.127Z" fill="#cd1423"/><path data-name="O" d="M76.92 69.967a3.118 3.118 0 1 1 3.118 3.165 3.008 3.008 0 0 1-3.118-3.165m5.034 0c0-1.372-.742-2.226-1.916-2.226-1.146 0-1.916.817-1.916 2.226s.77 2.216 1.916 2.216 1.916-.817 1.916-2.216" fill="#cd1423"/><path data-name="N" d="M85.174 66.848h1.114l2.639 3.381c.282.367.507.676.695.958h.019c-.019-.329-.019-.7-.019-1.043v-3.3h1.137v6.189h-1.033l-2.733-3.522c-.273-.347-.488-.658-.7-.949h-.019c.019.253.019.61.019.958v3.513h-1.127Z" fill="#cd1423"/></svg>